<svg width="91" height="25" viewBox="0 0 91 25" fill="none" xmlns="http://www.w3.org/2000/svg">
<path d="M1.27148 16H2.19141V12.2676H6.33984V11.4238H2.19141V8.57031H6.9082V7.7207H1.27148V16ZM8.20031 8.93945H9.12609V7.7207H8.20031V8.93945ZM8.22375 16H9.0968V10.1465H8.22375V16ZM13.137 16.0938C14.0276 16.0938 14.8127 15.6133 15.1877 14.7812L15.2229 16H16.0491V7.7207H15.1526V11.3184C14.7776 10.5156 13.9924 10.0469 13.1194 10.0469C11.5432 10.0469 10.5413 11.418 10.5413 13.0645C10.5413 14.7285 11.5432 16.0938 13.137 16.0938ZM13.342 15.291C12.1526 15.291 11.4377 14.3184 11.4377 13.0645C11.4377 11.8223 12.1526 10.8555 13.342 10.8555C14.5198 10.8555 15.2229 11.8105 15.2229 13.0645C15.2229 14.3301 14.5198 15.291 13.342 15.291ZM20.0951 16.0938C20.9857 16.0938 21.7709 15.6133 22.1459 14.7812L22.181 16H23.0072V7.7207H22.1107V11.3184C21.7357 10.5156 20.9505 10.0469 20.0775 10.0469C18.5013 10.0469 17.4994 11.418 17.4994 13.0645C17.4994 14.7285 18.5013 16.0938 20.0951 16.0938ZM20.3002 15.291C19.1107 15.291 18.3959 14.3184 18.3959 13.0645C18.3959 11.8223 19.1107 10.8555 20.3002 10.8555C21.4779 10.8555 22.181 11.8105 22.181 13.0645C22.181 14.3301 21.4779 15.291 20.3002 15.291ZM26.0102 16.0938C26.2739 16.0938 26.6079 16.0527 26.8716 15.9941L26.8598 15.2441C26.6899 15.2793 26.52 15.2969 26.4028 15.2969C25.8696 15.2969 25.7876 14.9688 25.7876 14.5469V7.7207H24.9028V14.7754C24.9028 15.6367 25.2016 16.0938 26.0102 16.0938ZM30.3492 16.0938C31.2984 16.0938 31.9781 15.7949 32.6344 15.1094L32.0191 14.5645C31.5152 15.1035 31.0289 15.291 30.3551 15.291C29.2184 15.291 28.5797 14.541 28.5152 13.3223H32.775C32.8043 13.2344 32.8219 13 32.8219 12.7949C32.8219 11.6113 32.1891 10.0469 30.2555 10.0469C28.5035 10.0469 27.5777 11.4648 27.5777 13.0996C27.5777 14.7637 28.5445 16.0938 30.3492 16.0938ZM28.5152 12.6719C28.6207 11.5762 29.2184 10.7969 30.2437 10.7969C31.3219 10.7969 31.8375 11.5469 31.9254 12.3086C31.943 12.4199 31.9488 12.5488 31.943 12.6719H28.5152Z" fill="#2D361F"/>
<path d="M62.1758 16H63.0957V8.54688H65.9316V7.7207H59.334V8.54688H62.1758V16ZM67.2003 16H68.0968V12.7188C68.0968 11.6289 68.6652 10.8555 69.6905 10.8555C70.6866 10.8555 71.0616 11.5117 71.0616 12.502V16H71.9581V12.3262C71.9347 11.0664 71.2902 10.0469 69.8898 10.0469C69.1515 10.0469 68.4777 10.3984 68.0968 11.0898V7.7207H67.2003V16ZM76.0569 16.0938C77.7502 16.0938 78.928 14.7344 78.928 13.0586C78.928 11.3887 77.7502 10.0469 76.0569 10.0469C74.3635 10.0469 73.1975 11.3887 73.1975 13.0586C73.1975 14.7402 74.3635 16.0938 76.0569 16.0938ZM76.0569 15.3262C74.8205 15.3262 74.1174 14.3066 74.1174 13.0586C74.1174 11.8223 74.8205 10.8203 76.0569 10.8203C77.2932 10.8203 78.008 11.8223 78.008 13.0586C78.008 14.3008 77.2932 15.3262 76.0569 15.3262ZM80.3314 16H81.181V13.0996C81.181 11.5234 82.0716 10.9082 82.8334 10.9082C83.0677 10.9082 83.2904 10.9727 83.4955 11.084L83.8939 10.3516C83.642 10.1465 83.2904 10.0469 82.9564 10.0469C82.265 10.0469 81.4798 10.4629 81.1927 11.3301V10.1465H80.3314V16ZM84.8989 16H85.7778V12.5781C85.7778 11.459 86.393 10.8672 87.354 10.8672C88.2739 10.8672 88.7602 11.4883 88.7602 12.502V16H89.6391V12.3262C89.6216 11.0664 88.9888 10.0469 87.5884 10.0469C86.8501 10.0469 86.1645 10.3984 85.7778 11.0898V10.1465H84.8989V16Z" fill="#2D361F"/>
<path d="M37.4153 13.2543C37.3027 10.3903 37.9398 7.4697 40.0322 5.51581C42.2077 3.48438 45.2647 2.65309 48.1927 3.19047C51.1211 3.72793 53.6625 5.60374 55.0066 8.2641C56.3127 10.8492 56.129 13.888 54.9277 16.5211C53.7632 19.0737 51.5469 20.9219 48.8628 21.731C46.0842 22.5685 42.9692 22.5582 40.6345 20.8294C38.3158 19.1124 37.5288 16.1382 37.4153 13.2543Z" fill="#646C43"/>
<path d="M50 16.4337L48.7704 15.012C49.2262 14.3373 49.5081 13.488 49.5741 12.5361L48.6924 12.4458C48.6564 13.1566 48.4884 13.8072 48.1945 14.3434L46.383 12.253C47.3668 11.6988 48.2665 11.0723 48.2665 9.93976C48.2665 8.84337 47.3368 8 46.1731 8C45.0034 8 43.9537 8.76506 43.9537 9.94578C43.9537 10.8554 44.7215 11.6747 45.0754 12.0663C44.0197 12.6386 43 13.3193 43 14.6446C43 15.9458 44.0977 16.6988 45.6153 16.6988C46.647 16.6988 47.5407 16.3193 48.2185 15.6747L49.3522 17L50 16.4337ZM44.8295 9.96386C44.8295 9.20482 45.4173 8.72289 46.1791 8.72289C46.9409 8.72289 47.4267 9.27108 47.4267 9.95181C47.4267 10.753 46.6829 11.2169 45.8012 11.6867C45.5133 11.3373 44.8295 10.5964 44.8295 9.96386ZM45.5913 15.9217C44.5536 15.9217 43.8757 15.4639 43.8757 14.6627C43.8757 13.7229 44.7035 13.1807 45.6392 12.6627L47.6847 15.0482C47.1628 15.5964 46.449 15.9217 45.5913 15.9217Z" fill="white"/>
</svg>
