<svg width="91" height="20" viewBox="0 0 91 20" fill="none" xmlns="http://www.w3.org/2000/svg">
<path d="M1.27148 13.6587H2.19141V9.92625H6.33984V9.0825H2.19141V6.22899H6.9082V5.37938H1.27148V13.6587ZM8.20031 6.59813H9.12609V5.37938H8.20031V6.59813ZM8.22375 13.6587H9.0968V7.80516H8.22375V13.6587ZM13.137 13.7524C14.0276 13.7524 14.8127 13.272 15.1877 12.4399L15.2229 13.6587H16.0491V5.37938H15.1526V8.97704C14.7776 8.1743 13.9924 7.70555 13.1194 7.70555C11.5432 7.70555 10.5413 9.07664 10.5413 10.7231C10.5413 12.3872 11.5432 13.7524 13.137 13.7524ZM13.342 12.9497C12.1526 12.9497 11.4377 11.977 11.4377 10.7231C11.4377 9.48094 12.1526 8.51414 13.342 8.51414C14.5198 8.51414 15.2229 9.46922 15.2229 10.7231C15.2229 11.9888 14.5198 12.9497 13.342 12.9497ZM20.0951 13.7524C20.9857 13.7524 21.7709 13.272 22.1459 12.4399L22.181 13.6587H23.0072V5.37938H22.1107V8.97704C21.7357 8.1743 20.9505 7.70555 20.0775 7.70555C18.5013 7.70555 17.4994 9.07664 17.4994 10.7231C17.4994 12.3872 18.5013 13.7524 20.0951 13.7524ZM20.3002 12.9497C19.1107 12.9497 18.3959 11.977 18.3959 10.7231C18.3959 9.48094 19.1107 8.51414 20.3002 8.51414C21.4779 8.51414 22.181 9.46922 22.181 10.7231C22.181 11.9888 21.4779 12.9497 20.3002 12.9497ZM26.0102 13.7524C26.2739 13.7524 26.6079 13.7114 26.8716 13.6528L26.8598 12.9028C26.6899 12.938 26.52 12.9556 26.4028 12.9556C25.8696 12.9556 25.7876 12.6274 25.7876 12.2056V5.37938H24.9028V12.4341C24.9028 13.2954 25.2016 13.7524 26.0102 13.7524ZM30.3492 13.7524C31.2984 13.7524 31.9781 13.4536 32.6344 12.7681L32.0191 12.2231C31.5152 12.7622 31.0289 12.9497 30.3551 12.9497C29.2184 12.9497 28.5797 12.1997 28.5152 10.9809H32.775C32.8043 10.8931 32.8219 10.6587 32.8219 10.4536C32.8219 9.27 32.1891 7.70555 30.2555 7.70555C28.5035 7.70555 27.5777 9.12352 27.5777 10.7583C27.5777 12.4223 28.5445 13.7524 30.3492 13.7524ZM28.5152 10.3306C28.6207 9.23485 29.2184 8.45555 30.2437 8.45555C31.3219 8.45555 31.8375 9.20555 31.9254 9.96727C31.943 10.0786 31.9488 10.2075 31.943 10.3306H28.5152Z" fill="white"/>
<path d="M62.1758 13.6587H63.0957V6.20555H65.9316V5.37938H59.334V6.20555H62.1758V13.6587ZM67.2003 13.6587H68.0968V10.3774C68.0968 9.28758 68.6652 8.51414 69.6905 8.51414C70.6866 8.51414 71.0616 9.17039 71.0616 10.1606V13.6587H71.9581V9.98485C71.9347 8.72508 71.2902 7.70555 69.8898 7.70555C69.1515 7.70555 68.4777 8.05711 68.0968 8.74852V5.37938H67.2003V13.6587ZM76.0569 13.7524C77.7502 13.7524 78.928 12.3931 78.928 10.7173C78.928 9.04735 77.7502 7.70555 76.0569 7.70555C74.3635 7.70555 73.1975 9.04735 73.1975 10.7173C73.1975 12.3989 74.3635 13.7524 76.0569 13.7524ZM76.0569 12.9848C74.8205 12.9848 74.1174 11.9653 74.1174 10.7173C74.1174 9.48094 74.8205 8.47899 76.0569 8.47899C77.2932 8.47899 78.008 9.48094 78.008 10.7173C78.008 11.9595 77.2932 12.9848 76.0569 12.9848ZM80.3314 13.6587H81.181V10.7583C81.181 9.18211 82.0716 8.56688 82.8334 8.56688C83.0677 8.56688 83.2904 8.63133 83.4955 8.74266L83.8939 8.01024C83.642 7.80516 83.2904 7.70555 82.9564 7.70555C82.265 7.70555 81.4798 8.12157 81.1927 8.98875V7.80516H80.3314V13.6587ZM84.8989 13.6587H85.7778V10.2368C85.7778 9.11766 86.393 8.52586 87.354 8.52586C88.2739 8.52586 88.7602 9.14696 88.7602 10.1606V13.6587H89.6391V9.98485C89.6216 8.72508 88.9888 7.70555 87.5884 7.70555C86.8501 7.70555 86.1645 8.05711 85.7778 8.74852V7.80516H84.8989V13.6587Z" fill="white"/>
<path fill-rule="evenodd" clip-rule="evenodd" d="M40.0321 3.17449C37.9397 5.12837 37.3026 8.04903 37.4152 10.9129C37.5287 13.7969 38.3157 16.7711 40.6344 18.4881C42.9691 20.2169 46.0841 20.2272 48.8627 19.3897C51.5468 18.5806 53.7631 16.7324 54.9277 14.1798C56.129 11.5467 56.3126 8.50791 55.0065 5.92278C53.6624 3.26242 51.121 1.38661 48.1926 0.84915C45.2646 0.311765 42.2076 1.14306 40.0321 3.17449ZM48.7703 12.6707L49.9999 14.0924L49.3521 14.6587L48.2184 13.3334C47.5406 13.978 46.6469 14.3575 45.6152 14.3575C44.0976 14.3575 42.9999 13.6045 42.9999 12.3033C42.9999 10.978 44.0196 10.2972 45.0753 9.72494C45.0646 9.71312 45.0536 9.70092 45.0422 9.68833C44.6758 9.28384 43.9536 8.48664 43.9536 7.60446C43.9536 6.42374 45.0033 5.65868 46.173 5.65868C47.3367 5.65868 48.2664 6.50205 48.2664 7.59844C48.2664 8.73097 47.3667 9.35747 46.3829 9.91169L48.1944 12.0021C48.4883 11.4659 48.6563 10.8153 48.6923 10.1045L49.574 10.1948C49.508 11.1466 49.2261 11.996 48.7703 12.6707ZM46.179 6.38157C45.4172 6.38157 44.8294 6.8635 44.8294 7.62253C44.8294 8.19179 45.3832 8.84888 45.7039 9.22933C45.7395 9.27161 45.7723 9.31048 45.8011 9.34542C46.6829 8.87555 47.4266 8.41169 47.4266 7.61049C47.4266 6.92976 46.9408 6.38157 46.179 6.38157ZM43.8757 12.3213C43.8757 13.1225 44.5535 13.5804 45.5912 13.5804C46.4489 13.5804 47.1627 13.2551 47.6846 12.7069L45.6392 10.3213C44.7034 10.8394 43.8757 11.3816 43.8757 12.3213Z" fill="white"/>
</svg>
