<svg width="19" height="20" viewBox="0 0 19 20" fill="none" xmlns="http://www.w3.org/2000/svg">
<path d="M0.0741749 10.9129C-0.0384627 8.04903 0.598643 5.12837 2.69107 3.17449C4.86653 1.14306 7.92353 0.311765 10.8515 0.84915C13.7799 1.38661 16.3214 3.26242 17.6654 5.92278C18.9715 8.50791 18.7879 11.5467 17.5866 14.1798C16.4221 16.7324 14.2058 18.5806 11.5216 19.3897C8.74301 20.2272 5.62805 20.2169 3.29335 18.4881C0.974661 16.7711 0.187599 13.7969 0.0741749 10.9129Z" fill="#E9B949"/>
<path d="M8.55562 13.1112C10.5193 13.1112 12.1112 11.5193 12.1112 9.55562C12.1112 7.5919 10.5193 6 8.55562 6C6.5919 6 5 7.5919 5 9.55562C5 11.5193 6.5919 13.1112 8.55562 13.1112Z" stroke="white" stroke-linecap="round" stroke-linejoin="round"/>
<path d="M13 14.0001L11.0667 12.0667" stroke="white" stroke-linecap="round" stroke-linejoin="round"/>
</svg>
